<svg width="163" height="377" viewBox="0 0 163 377" fill="none" xmlns="http://www.w3.org/2000/svg">
<path d="M112.197 318.206L105.055 301.296H119.125V295.897H102.775L85.2966 254.515H85.2735L109.46 191.078H109.494L133.779 127.387H127.459L106.693 183.252L86.1127 127.387H85.8406L113.737 63.6965L86.8361 0H80.6955L52.7996 63.6908L79.7001 127.382H79.5207L58.755 183.246L38.1746 127.382H31.7678L55.6008 191.072L79.3355 254.509H79.1503L61.0295 295.891H43.8811V301.29H58.6682L51.2602 318.2L29.2328 369.739L2.07195 358.377L0 363.366L33.0294 377L57.4702 318.2H57.4875L64.7104 301.29H98.5616L105.512 318.2H105.53L129.971 377L163 363.366L160.928 358.377L133.767 369.739L112.197 318.206ZM97.9424 41.382H68.6054L83.5025 6.47693L97.9424 41.382ZM100.292 80.6069H66.4408L59.49 63.6965H59.0386L66.2614 46.7862H100.113L107.064 63.6965H107.515L100.292 80.6069ZM83.0453 120.91L68.5996 86.0053H97.9366L83.0453 120.91ZM82.4897 246.717L61.7645 190.547L82.7501 135.508L103.331 190.501L82.4897 246.717ZM96.3971 295.897H67.0601L81.9572 260.992L96.3971 295.897ZM82.5302 194.914C84.3764 194.914 85.8696 193.425 85.8696 191.586C85.8696 189.746 84.3764 188.258 82.5302 188.258C80.684 188.258 79.1908 189.746 79.1908 191.586C79.1908 193.42 80.6898 194.914 82.5302 194.914ZM125.827 104.588C125.827 102.748 124.334 101.26 122.487 101.26C120.641 101.26 119.148 102.748 119.148 104.588C119.148 106.428 120.641 107.916 122.487 107.916C124.334 107.916 125.827 106.428 125.827 104.588ZM47.3999 104.588C47.3999 102.748 45.9067 101.26 44.0605 101.26C42.2142 101.26 40.7211 102.748 40.7211 104.588C40.7211 106.428 42.2142 107.916 44.0605 107.916C45.9067 107.916 47.3999 106.428 47.3999 104.588ZM79.1908 319.088C79.1908 320.928 80.684 322.416 82.5302 322.416C84.3764 322.416 85.8696 320.928 85.8696 319.088C85.8696 317.248 84.3764 315.76 82.5302 315.76C80.684 315.76 79.1908 317.248 79.1908 319.088Z" fill="black"/>
</svg>
