<svg width="130" height="45" viewBox="0 0 130 45" fill="none" xmlns="http://www.w3.org/2000/svg">
<g id="Logo Awal">
<mask id="mask0_289_241" style="mask-type:luminance" maskUnits="userSpaceOnUse" x="0" y="0" width="130" height="45">
<g id="clip-path-2">
<path id="Vector" d="M7.16882 38.0036C6.0529 36.7472 5.49493 35.0494 5.49493 32.9101C5.49493 30.7708 6.02003 29.0627 7.07023 27.7859C8.12189 26.509 9.71837 25.8706 11.8597 25.8706C13.9192 25.8706 15.4952 26.509 16.5878 27.7859C17.6803 29.0627 18.2266 30.7708 18.2266 32.9101C18.2266 35.0508 17.6803 36.7487 16.5878 38.0036C15.4952 39.2586 13.9192 39.8861 11.8597 39.8861C9.84253 39.8861 8.27745 39.2586 7.16444 38.0036M3.33683 24.1742C1.11082 26.2507 -0.0014592 29.1627 1.4367e-06 32.9101C0.00146208 36.6575 1.11374 39.5592 3.33683 41.6153C5.56139 43.6729 8.4038 44.7017 11.8641 44.7017C15.3243 44.7017 18.1674 43.6729 20.3935 41.6153C22.6195 39.5578 23.7318 36.656 23.7303 32.9101C23.7288 29.1641 22.6166 26.2522 20.3935 24.1742C18.1674 22.0947 15.3243 21.055 11.8641 21.055C8.4038 21.055 5.56139 22.0947 3.33683 24.1742ZM80.6449 38.0036C79.5333 36.7472 78.9776 35.0494 78.9776 32.9101C78.9776 30.7708 79.5027 29.0627 80.5529 27.7859C81.6031 26.509 83.1995 25.8706 85.3423 25.8706C87.4018 25.8706 88.9778 26.509 90.0704 27.7859C91.163 29.0627 91.7085 30.7708 91.707 32.9101C91.707 35.0508 91.1615 36.7487 90.0704 38.0036C88.9793 39.2586 87.4033 39.8861 85.3423 39.8861C83.3222 39.8861 81.7564 39.2586 80.6449 38.0036ZM76.8129 24.1742C74.5898 26.2507 73.4775 29.1627 73.4761 32.9101C73.4746 36.6575 74.5869 39.5592 76.8129 41.6153C79.0389 43.6729 81.882 44.7017 85.3423 44.7017C88.8026 44.7017 91.6457 43.6729 93.8717 41.6153C96.0948 39.5578 97.2071 36.656 97.2085 32.9101C97.21 29.1641 96.0977 26.2522 93.8717 24.1742C91.6457 22.0947 88.8026 21.055 85.3423 21.055C81.882 21.055 79.0389 22.0947 76.8129 24.1742ZM58.8952 0V39.2075H38.3155V0H32.814V44.0844H64.3945V0H58.8952ZM123.783 0V8.02669L115.378 21.3023C114.597 22.5792 113.917 23.7422 113.338 24.7914C112.693 25.9941 112.135 27.2422 111.671 28.5257L111.362 28.4031C111.587 27.0968 111.71 25.7752 111.732 24.45C111.775 22.928 111.796 21.1375 111.796 19.0784V0H106.294V44.0844H111.796V35.9964L120.082 22.8455C120.947 21.4475 121.689 20.1918 122.308 19.0784C122.942 17.9312 123.479 16.7334 123.914 15.4974L124.223 15.6222C124.04 16.9286 123.927 18.2438 123.883 19.5622C123.822 21.0856 123.791 22.8762 123.789 24.9337V44.0734H129.284V0H123.783Z" fill="white"/>
</g>
</mask>
<g mask="url(#mask0_289_241)">
<g id="Group">
<path id="Vector_2" d="M129.284 0H0V44.7017H129.284V0Z" fill="#BF4718"/>
</g>
</g>
</g>
</svg>
