<svg width="84" height="69" viewBox="0 0 84 69" fill="none" xmlns="http://www.w3.org/2000/svg">
<path id="Vector" d="M83.8382 56.7916L82.7749 54.2245L68.8382 60.074L57.767 33.5438L54.1023 24.8364H61.3214V22.0587H52.9319L43.9607 0.756348H40.8109L31.5119 22.0587H22.7111V24.8364H30.2981L26.4963 33.5438L15.1944 60.074L1.25763 54.2245L0.194336 56.7916L17.1438 63.8077L26.396 41.4758L32.3545 58.0183H35.4575L37.4571 52.4629H46.5053L48.5048 58.0183H51.6078L57.5998 41.3789L66.8955 63.8077L83.8382 56.7916ZM38.303 50.103L41.9778 39.9014L45.6526 50.103H38.303ZM49.6584 22.0587H34.6015L42.2453 4.08891L49.6584 22.0587ZM54.3497 33.5438L56.1754 37.9494L50.0965 54.9765L43.7734 37.341H42.9007H41.0549H40.2391L33.9461 54.9765L27.8471 37.9694L29.6828 33.5438H29.6929L33.3977 24.8364H50.7686L54.3363 33.5438H54.3497ZM72.2889 23.4726C72.2889 22.6804 71.6469 22.0386 70.8578 22.0386C70.0653 22.0386 69.4233 22.6804 69.4233 23.4726C69.4233 24.2648 70.0653 24.9066 70.8578 24.9066C71.6469 24.9032 72.2889 24.2615 72.2889 23.4726ZM14.6092 23.4726C14.6092 22.6804 13.9672 22.0386 13.1748 22.0386C12.3823 22.0386 11.7403 22.6804 11.7403 23.4726C11.7403 24.2648 12.3823 24.9066 13.1748 24.9066C13.9672 24.9066 14.6092 24.2615 14.6092 23.4726ZM40.5835 66.7826C40.5835 67.5748 41.2255 68.2166 42.0179 68.2166C42.8104 68.2166 43.4524 67.5748 43.4524 66.7826C43.4524 65.9904 42.8104 65.3519 42.0179 65.3519C41.2255 65.3519 40.5835 65.9937 40.5835 66.7826Z" fill="black"/>
</svg>
